<!--?xml version="1.0" standalone="no"?-->
              <svg id="sw-js-blob-svg" viewBox="0 0 100 100" xmlns="http://www.w3.org/2000/svg" version="1.1">
                    <defs> 
                        <linearGradient id="sw-gradient" x1="0" x2="1" y1="1" y2="0">
                            <stop id="stop1" stop-color="rgba(11, 198, 162, 1)" offset="0%"></stop>
                            <stop id="stop2" stop-color="rgba(251, 168, 31, 1)" offset="100%"></stop>
                        </linearGradient>
                    </defs>
                <path fill="rgba(11, 198, 162, 1)" d="M10,-14.1C14.1,-13,19.1,-12,25.3,-8.6C31.6,-5.1,38.9,0.8,38.8,6C38.7,11.2,31.2,15.8,25.5,21.9C19.9,27.9,16.2,35.3,10.7,37.6C5.1,39.8,-2.4,36.8,-8.4,33C-14.3,29.2,-18.8,24.6,-21.4,19.6C-24.1,14.6,-25,9.2,-26,3.6C-27,-2,-28.2,-7.7,-28.4,-15.3C-28.6,-22.9,-27.8,-32.4,-22.9,-33.1C-18,-33.8,-9,-25.7,-3,-21C3,-16.4,6,-15.2,10,-14.1Z" width="100%" height="100%" transform="translate(50 50)" stroke-width="0" style="transition: 0.3s;" stroke="rgba(11, 198, 162, 1)"></path>
              </svg>